<?xml version="1.0" encoding="UTF-8"?>
<svg width="32px" height="32px" viewBox="0 0 8.4666678 8.4666676" version="1.1" xmlns="http://www.w3.org/2000/svg" xmlns:xlink="http://www.w3.org/1999/xlink">
    <title>logo-mobile</title>
    <g id="Page-1" stroke="none" stroke-width="2" fill="none" fill-rule="evenodd" transform="translate(21.273205,0.43290976)">
        <g id="logo-mobile" transform="matrix(0.26458333,0,0,0.26458333,-45.040746,-27.002863)">
            <rect id="Rectangle-6" stroke="#358d8d" stroke-width="4" fill-rule="nonzero" x="2" y="2" width="30" height="30"></rect>
            <path id="SA" fill="#358d8d" d="m 110.22461,112.03906 q 0,0.85547 0.26953,1.35938 0.28125,0.5039 1.00781,1.03125 0.72657,0.51562 2.02735,1.00781 1.30078,0.48047 2.28515,0.99609 0.98438,0.50391 1.52344,1.08985 0.55078,0.57422 0.77344,1.21875 0.22265,0.64453 0.22265,1.47656 0,2.05078 -1.41796,3.08203 -1.41797,1.03125 -4.125,1.03125 -2.1211,0 -3.66797,-0.45703 l 0.23437,-1.10156 q 0.9961,0.375 1.86328,0.52734 0.87891,0.14063 1.86328,0.14063 2.20313,0 3.2461,-0.72657 1.04297,-0.72656 1.04297,-2.39062 0,-1.30078 -0.8086,-2.13281 -0.80859,-0.84375 -3.14062,-1.6875 -2.33203,-0.85547 -3.2461,-1.78125 -0.91406,-0.9375 -0.91406,-2.36719 0,-1.73438 1.28906,-2.78906 1.30079,-1.05469 3.17579,-1.05469 2.09765,0 3.57421,0.41016 l -0.23437,0.98437 q -1.08984,-0.25781 -1.85156,-0.36328 -0.75,-0.11719 -1.5586,-0.11719 -1.64062,0 -2.54297,0.75 -0.89062,0.73828 -0.89062,1.86328 z m -13.582032,6.38672 q -1.078125,2.50781 -1.570312,3.84375 -0.492188,1.33594 -0.492188,1.72266 h -1.253906 q 0,-0.375 3.257812,-7.44141 3.269532,-7.0664 3.269532,-7.82812 h 1.324214 q 0,0.6914 3.21094,7.67578 3.22266,6.97265 3.22266,7.59375 h -1.20703 q 0,-0.76172 -2.10938,-5.56641 z m 3.867192,-8.74219 h -0.10547 q 0,0.33985 -3.480472,7.96875 h 7.007812 q -1.73437,-4.05468 -2.57812,-5.90625 -0.84375,-1.86328 -0.84375,-2.0625 z"></path>
        </g>
    </g>
</svg>