<?xml version="1.0" encoding="UTF-8"?>
<svg width="80mm" height="16mm" viewBox="0 0 80 16" version="1.1" xmlns="http://www.w3.org/2000/svg" xmlns:xlink="http://www.w3.org/1999/xlink">
    <title>logo</title>
    <g id="Page-1" stroke="none" stroke-width="1" fill="none" fill-rule="evenodd">
        <g id="Advocaten" transform="matrix(0.54694747,0,0,0.54694747,-1.5602294,-53.914027)" fill-rule="nonzero">
            <path id="LOGOAdvocaten" fill="#358d8d" d="m 138.78198,111.84116 h 0.0182 q 1.4948,-1.33985 2.97136,-1.33985 1.57683,0 2.3698,0.67448 0.80208,0.67449 0.80208,2.35157 l -0.009,0.65625 q 0,0.15495 -0.009,0.46485 0,1.11198 0.009,1.79557 l 0.009,3.01694 h -0.91146 q 0.21875,-2.77996 0.21875,-5.76955 0,-1.40364 -0.75651,-1.92318 -0.7474,-0.51953 -1.9323,-0.51953 -1.52213,0 -2.77995,1.17579 -0.0182,0.66536 -0.0182,2.27865 0,1.18489 0.009,2.24219 l 0.0182,1.93229 q 0,0.19141 0.009,0.58334 h -0.875 q 0.16406,-3.36329 0.16406,-4.48439 0,-1.82292 -0.36458,-4.17448 l 0.89323,-0.19141 z m -7.83855,7.97528 q -1.64974,0 -2.76173,-1.15756 -1.10286,-1.16667 -1.10286,-3.19011 0,-2.34245 1.23958,-3.70053 1.23959,-1.35807 3.03517,-1.35807 1.42187,0 2.61589,1.09375 1.19401,1.08464 1.19401,3.3086 0,2.30599 -1.2487,3.65495 -1.23959,1.34897 -2.97136,1.34897 z m 0.16406,-8.79559 q -1.67709,0 -2.46094,1.29427 -0.78386,1.28516 -0.78386,2.74349 0,1.82292 0.89323,2.98048 0.89324,1.15755 2.3698,1.15755 1.66797,0 2.47006,-1.29427 0.80208,-1.29427 0.80208,-2.73438 0,-1.77735 -0.91146,-2.96225 -0.91146,-1.18489 -2.37891,-1.18489 z m -7.8021,-4.40235 1.08464,-0.0365 q -0.10937,2.40625 -0.10937,6.06121 0,3.62761 0.14583,6.81772 h -1.06641 q 0.17318,-2.83464 0.17318,-6.81772 0,-3.35418 -0.22787,-6.02475 z m -6.62631,13.07033 q -0.85677,0 -1.52214,-0.18229 -0.65625,-0.17318 -1.03906,-0.40104 h -0.0365 l -0.16406,0.35547 h -0.67448 q 0.0911,-2.58855 0.0911,-6.81772 0,-3.52735 -0.14583,-5.97007 l 1.0026,-0.0911 q -0.0911,0.92969 -0.0911,5.09506 h 0.0365 q 0.41927,-0.51042 1.21224,-0.84766 0.79297,-0.34635 1.74089,-0.34635 1.82292,0 2.84375,1.2487 1.02084,1.23958 1.02084,3.0625 0,2.13282 -1.20313,3.51824 -1.19401,1.3763 -3.07162,1.3763 z m 0.16406,-8.47658 q -1.8776,0 -2.77995,1.32162 0,3.42709 0.10937,5.86069 0.93881,0.63802 2.33334,0.63802 1.82292,0 2.69792,-1.1849 0.87501,-1.19401 0.87501,-2.88933 0,-1.85937 -0.90235,-2.79818 -0.90235,-0.94792 -2.33334,-0.94792 z m -7.46486,7.31903 q -1.21224,1.15755 -3.0625,1.15755 -1.38542,0 -2.13282,-0.61068 -0.74739,-0.61979 -0.74739,-1.80469 0,-1.48568 1.27604,-2.28776 1.28516,-0.80209 4.66667,-0.82943 0.0365,-0.32813 0.0365,-0.64714 0,-1.2487 -0.71094,-1.73177 -0.71094,-0.49219 -1.94141,-0.49219 -1.45833,0 -2.9349,0.3737 l 0.11849,-0.78386 q 1.39454,-0.3737 2.85287,-0.3737 1.57683,0 2.46094,0.65626 0.88412,0.64713 0.88412,2.16016 0,0.49218 -0.0547,1.4401 -0.0456,0.93881 -0.0456,1.8685 0,1.33984 0.20964,2.83464 l -0.72917,0.0365 q -0.0911,-0.5651 -0.0911,-0.96614 z m 0.0365,-3.73699 q -2.40625,0 -3.78256,0.55599 -1.3763,0.54688 -1.3763,2.00521 0,1.6224 2.15104,1.6224 0.98438,0 1.74089,-0.29166 0.76563,-0.29167 1.26693,-0.88412 z m -14.264386,-4.63022 q 0,0.66537 0.209636,1.0573 0.21875,0.39193 0.783856,0.80208 0.565105,0.40105 1.576825,0.78386 1.011721,0.3737 1.777347,0.77474 0.765622,0.39193 1.184902,0.84766 0.42838,0.44661 0.60156,0.94792 0.17318,0.5013 0.17318,1.14843 0,1.59506 -1.10287,2.39714 -1.102866,0.80209 -3.208339,0.80209 -1.649742,0 -2.852869,-0.35547 l 0.182292,-0.85677 q 0.774741,0.29166 1.449221,0.41015 0.683595,0.10938 1.449221,0.10938 1.713545,0 2.524745,-0.56511 0.811199,-0.5651 0.811199,-1.85937 0,-1.01172 -0.62891,-1.65886 -0.628905,-0.65625 -2.44271,-1.3125 -1.813805,-0.66537 -2.524744,-1.38542 -0.710939,-0.72917 -0.710939,-1.84115 0,-1.34896 1.002606,-2.16928 1.01172,-0.82031 2.470056,-0.82031 1.631514,0 2.779951,0.31901 l -0.18229,0.76563 q -0.847657,-0.20052 -1.440106,-0.28256 -0.583335,-0.0911 -1.212242,-0.0911 -1.276044,0 -1.977868,0.58333 -0.69271,0.57422 -0.69271,1.44922 z"></path>
            </g>
        
        <g id="Advocaten" transform="matrix(0.54694747,0,0,0.54694747,-49.467095,-53.914027)" fill-rule="nonzero">
            <path id="LOGOSablon" fill="#022303" d="m 170.3823,111.84116 h 0.0182 q 1.49479,-1.33985 2.97136,-1.33985 1.57683,0 2.3698,0.67448 0.80208,0.67449 0.80208,2.35157 l -0.009,0.65625 q 0,0.15495 -0.009,0.46485 0,1.11198 0.009,1.79557 l 0.009,3.01694 h -0.91146 q 0.21875,-2.77996 0.21875,-5.76955 0,-1.40364 -0.75651,-1.92318 -0.7474,-0.51953 -1.9323,-0.51953 -1.52213,0 -2.77995,1.17579 -0.0182,0.66536 -0.0182,2.27865 0,1.18489 0.009,2.24219 l 0.0182,1.93229 q 0,0.19141 0.009,0.58334 h -0.875 q 0.16406,-3.36329 0.16406,-4.48439 0,-1.82292 -0.36458,-4.17448 l 0.89323,-0.19141 z m -10.13543,3.06251 q 0,1.76823 1.08464,2.92578 1.09375,1.14844 2.94401,1.14844 1.40365,0 2.33334,-0.28255 l -0.12761,0.72917 q -0.28255,0.0911 -0.875,0.17318 -0.59245,0.0911 -1.25781,0.0911 -2.41537,0 -3.63673,-1.26693 -1.21224,-1.27604 -1.21224,-3.14454 0,-0.99349 0.23698,-1.84114 0.24609,-0.84766 0.72917,-1.54949 1.14844,-1.49479 2.95313,-1.49479 1.6224,0 2.51563,1.04818 0.90234,1.04818 0.90234,2.58854 0,0.50131 -0.0365,0.80209 z m 0.0547,-0.64714 h 5.71485 q 0,-1.54037 -0.66537,-2.3698 -0.66536,-0.82942 -1.96875,-0.82942 -1.21224,0 -2.04167,0.82031 -0.82031,0.8112 -1.03906,2.37891 z m -2.63414,5.14975 q -0.79297,0.23698 -1.35807,0.23698 -1.59506,0 -2.0599,-0.88412 -0.46485,-0.89323 -0.46485,-2.86198 0,-2.38803 0.0182,-4.25652 -0.54687,0 -1.69531,0.0547 l 0.0365,-0.7474 q 1.01172,0.0547 1.74089,0.0547 0,-0.99349 0.10937,-2.63412 l 0.80209,-0.0547 q -0.17318,2.10547 -0.17318,2.68881 0.79297,0 2.9349,-0.0911 l -0.0547,0.78386 q -1.87761,-0.0547 -2.9349,-0.0547 -0.0547,1.59505 -0.0547,3.75521 0,2.3698 0.51042,2.97136 0.51953,0.59245 1.46745,0.59245 0.26432,0 0.54688,-0.0456 0.28255,-0.0547 0.70182,-0.16406 z m -8.24871,-0.875 q -1.21224,1.15755 -3.06251,1.15755 -1.38541,0 -2.13281,-0.61068 -0.7474,-0.61979 -0.7474,-1.80469 0,-1.48568 1.27604,-2.28776 1.28516,-0.80209 4.66668,-0.82943 0.0365,-0.32813 0.0365,-0.64714 0,-1.2487 -0.71094,-1.73177 -0.71094,-0.49219 -1.94141,-0.49219 -1.45834,0 -2.9349,0.3737 l 0.11849,-0.78386 q 1.39453,-0.3737 2.85287,-0.3737 1.57682,0 2.46094,0.65626 0.88412,0.64713 0.88412,2.16016 0,0.49218 -0.0547,1.4401 -0.0456,0.93881 -0.0456,1.8685 0,1.33984 0.20963,2.83464 l -0.72917,0.0365 q -0.0911,-0.5651 -0.0911,-0.96614 z m 0.0365,-3.73699 q -2.40626,0 -3.78256,0.55599 -1.37631,0.54688 -1.37631,2.00521 0,1.6224 2.15105,1.6224 0.98438,0 1.74089,-0.29166 0.76563,-0.29167 1.26693,-0.88412 z m -13.51699,0.16406 q 0,1.85027 1.11198,2.9349 1.1211,1.08464 2.91667,1.08464 0.4375,0 0.82032,-0.0729 0.38281,-0.082 0.9388,-0.26433 v 0.65625 q -0.3099,0.19141 -0.90235,0.29167 -0.58333,0.10026 -1.05729,0.10026 -2.06901,0 -3.34506,-1.23958 -1.26693,-1.23959 -1.26693,-3.19011 0,-1.48568 0.61068,-2.51563 0.61979,-1.02995 1.61329,-1.63152 1.0026,-0.61068 2.44271,-0.61068 0.9388,0 1.51302,0.2461 l -0.15495,0.91146 q -0.60156,-0.19141 -1.01172,-0.28255 -0.40104,-0.0912 -0.82943,-0.0912 -0.875,0 -1.6862,0.48307 -0.8112,0.48308 -1.26693,1.30339 -0.44661,0.8112 -0.44661,1.88672 z m -7.35549,4.85809 q -1.64974,0 -2.76172,-1.15756 -1.10287,-1.16667 -1.10287,-3.19011 0,-2.34245 1.23959,-3.70053 1.23959,-1.35807 3.03516,-1.35807 1.42188,0 2.61589,1.09375 1.19401,1.08464 1.19401,3.3086 0,2.30599 -1.2487,3.65495 -1.23958,1.34897 -2.97136,1.34897 z m 0.16407,-8.79559 q -1.67709,0 -2.46094,1.29427 -0.78386,1.28516 -0.78386,2.74349 0,1.82292 0.89323,2.98048 0.89323,1.15755 2.3698,1.15755 1.66797,0 2.47005,-1.29427 0.80209,-1.29427 0.80209,-2.73438 0,-1.77735 -0.91146,-2.96225 -0.91146,-1.18489 -2.37891,-1.18489 z m -9.47918,8.44012 h -0.43751 q 0,-0.33724 -0.4375,-1.44923 -0.42838,-1.11198 -1.33073,-3.03516 l -0.34635,-0.74739 q -0.72006,-1.54037 -1.07553,-2.35157 -0.35547,-0.8112 -0.35547,-1.07552 h 0.84766 q 0,0.46484 1.48568,3.70052 1.4948,3.22657 1.4948,3.67319 h 0.0547 q 0,-0.40104 0.67448,-1.95053 0.67449,-1.55859 1.50391,-3.26302 0.82943,-1.71355 0.82943,-2.16016 h 0.875 q 0,0.27343 -1.89583,4.17448 -1.88672,3.90105 -1.88672,4.48439 z m -6.01564,-8.68622 0.009,1.83204 q 0,4.06511 0.16407,6.85418 l -0.76563,0.0182 q -0.0729,-0.42839 -0.0729,-0.98438 h -0.0911 q -0.41927,0.5013 -1.23047,0.84766 -0.8112,0.34635 -1.83204,0.34635 -1.66797,0 -2.72526,-1.2487 -1.04818,-1.25781 -1.04818,-3.07162 0,-2.16927 1.19401,-3.53646 1.19401,-1.36719 3.19011,-1.36719 0.82943,0 1.43099,0.1914 0.61068,0.18229 0.93881,0.53776 h 0.0182 q 0,-1.64062 -0.0729,-4.5573 l 0.95703,-0.0547 q -0.0729,1.09375 -0.0729,2.65235 0,1.0026 0.009,1.54036 z m -0.82032,1.08464 q -0.39192,-0.3737 -0.97526,-0.55599 -0.58333,-0.18229 -1.27604,-0.18229 -1.81381,0 -2.73438,1.09375 -0.91146,1.08464 -0.91146,3.15365 0,1.63151 0.86589,2.60678 0.875,0.96614 2.40625,0.96614 0.76563,0 1.39453,-0.24609 0.62891,-0.25521 1.36719,-1.02995 0,-0.46484 0.009,-1.39453 0,-2.3698 -0.14584,-4.41147 z m -16.552108,3.27214 q -0.838543,1.95053 -1.221356,2.98959 -0.382813,1.03906 -0.382813,1.33985 H 93.30013 q 0,-0.29167 2.533859,-5.78777 2.542973,-5.49611 2.542973,-6.08856 h 1.02995 q 0,0.53776 2.497398,5.97007 2.50652,5.42318 2.50652,5.90626 h -0.93881 q 0,-0.59245 -1.64062,-4.32944 z m 3.007818,-6.79949 h -0.08203 q 0,0.26432 -2.707036,6.19793 h 5.450526 q -1.34896,-3.15365 -2.005208,-4.59376 -0.656251,-1.44922 -0.656252,-1.60417 z"></path>
        </g>
    </g>
</svg>